<svg id="visual" viewBox="0 0 900 600" width="900" height="600" xmlns="http://www.w3.org/2000/svg" xmlns:xlink="http://www.w3.org/1999/xlink" version="1.1"><path d="M0 437L21.5 432C43 427 86 417 128.8 411.2C171.7 405.3 214.3 403.7 257.2 407.7C300 411.7 343 421.3 385.8 421.5C428.7 421.7 471.3 412.3 514.2 412.5C557 412.7 600 422.3 642.8 431.5C685.7 440.7 728.3 449.3 771.2 450.7C814 452 857 446 878.5 443L900 440L900 601L878.5 601C857 601 814 601 771.2 601C728.3 601 685.7 601 642.8 601C600 601 557 601 514.2 601C471.3 601 428.7 601 385.8 601C343 601 300 601 257.2 601C214.3 601 171.7 601 128.8 601C86 601 43 601 21.5 601L0 601Z" fill="#02192e"></path><path d="M0 463L21.5 459.8C43 456.7 86 450.3 128.8 457.3C171.7 464.3 214.3 484.7 257.2 489.3C300 494 343 483 385.8 478.3C428.7 473.7 471.3 475.3 514.2 480.2C557 485 600 493 642.8 492.2C685.7 491.3 728.3 481.7 771.2 483.3C814 485 857 498 878.5 504.5L900 511L900 601L878.5 601C857 601 814 601 771.2 601C728.3 601 685.7 601 642.8 601C600 601 557 601 514.2 601C471.3 601 428.7 601 385.8 601C343 601 300 601 257.2 601C214.3 601 171.7 601 128.8 601C86 601 43 601 21.5 601L0 601Z" fill="#021629"></path><path d="M0 496L21.5 505C43 514 86 532 128.8 538.3C171.7 544.7 214.3 539.3 257.2 531.8C300 524.3 343 514.7 385.8 506.7C428.7 498.7 471.3 492.3 514.2 493.2C557 494 600 502 642.8 504C685.7 506 728.3 502 771.2 505.2C814 508.3 857 518.7 878.5 523.8L900 529L900 601L878.5 601C857 601 814 601 771.2 601C728.3 601 685.7 601 642.8 601C600 601 557 601 514.2 601C471.3 601 428.7 601 385.8 601C343 601 300 601 257.2 601C214.3 601 171.7 601 128.8 601C86 601 43 601 21.5 601L0 601Z" fill="#021425"></path><path d="M0 561L21.5 562C43 563 86 565 128.8 567.8C171.7 570.7 214.3 574.3 257.2 571.2C300 568 343 558 385.8 551.2C428.7 544.3 471.3 540.7 514.2 536.8C557 533 600 529 642.8 534.3C685.7 539.7 728.3 554.3 771.2 557.7C814 561 857 553 878.5 549L900 545L900 601L878.5 601C857 601 814 601 771.2 601C728.3 601 685.7 601 642.8 601C600 601 557 601 514.2 601C471.3 601 428.7 601 385.8 601C343 601 300 601 257.2 601C214.3 601 171.7 601 128.8 601C86 601 43 601 21.5 601L0 601Z" fill="#011120"></path></svg>